<svg id="Layer_1" data-name="Layer 1" xmlns="http://www.w3.org/2000/svg" viewBox="0 0 577.6093 188.59142"><defs><style>.cls-1{fill:#201e5b;}</style></defs><path class="cls-1" d="M79.46222,122.79429a13.90769,13.90769,0,1,1,13.90723,13.72559A13.71294,13.71294,0,0,1,79.46222,122.79429Zm23.06982.03516a9.16585,9.16585,0,1,0-9.16259,9.38086A9.30329,9.30329,0,0,0,102.532,122.82945Z"/><path class="cls-1" d="M144.50568,109.46129v27.31054h-.10694l-19.11767-17.751v17.0332h-4.70655V108.74351h.10694l19.11767,17.751v-17.0332Z"/><path class="cls-1" d="M164.02032,109.46129v22.0664h12.3252v4.52637H159.31378V109.46129Z"/><path class="cls-1" d="M193.05792,109.46129v26.59277h-4.70654V109.46129Z"/><path class="cls-1" d="M231.68878,109.46129v27.31054h-.10693l-19.11768-17.751v17.0332h-4.70654V108.74351h.10693l19.11768,17.751v-17.0332Z"/><path class="cls-1" d="M263.34991,109.46129v4.52929H251.20343v5.92969h9.5581v4.52637h-9.5581v7.08105h12.14648v4.52637h-16.853V109.46129Z"/><path class="cls-1" d="M294.25665,109.46129h7.54541c8.48145,0,14.30274,4.99511,14.30274,13.29785,0,8.2998-5.82129,13.29492-14.30274,13.29492h-7.54541Zm17.14014,13.29785c0-6.4336-4.41943-8.76856-9.70166-8.76856H298.9632v17.53711h2.73193C306.97736,131.52769,311.39679,129.1898,311.39679,122.75914Z"/><path class="cls-1" d="M327.92755,122.79429a13.90769,13.90769,0,1,1,13.90723,13.72559A13.71294,13.71294,0,0,1,327.92755,122.79429Zm23.06982.03516a9.16585,9.16585,0,1,0-9.16259,9.38086A9.30329,9.30329,0,0,0,350.99737,122.82945Z"/><path class="cls-1" d="M367.56622,122.75914c0-7.54688,5.49756-13.76368,14.15772-13.76368a16.69862,16.69862,0,0,1,8.01269,1.834v4.74316h-.07177a12.81831,12.81831,0,0,0-7.65381-2.26465c-6.39551,0-9.70166,4.38282-9.70166,9.45118,0,5.06543,3.30615,9.45117,9.77343,9.45117a12.84114,12.84114,0,0,0,7.727-2.26465h.07178v4.74316a16.89506,16.89506,0,0,1-8.08594,1.83106C373.06378,136.51988,367.56622,130.306,367.56622,122.75914Z"/><path class="cls-1" d="M401.02325,113.99058v-4.52929h21.77637v4.52929H414.283v22.06348h-4.70654V113.99058Z"/><path class="cls-1" d="M432.71954,122.79429a13.90695,13.90695,0,1,1,13.9043,13.72559A13.71228,13.71228,0,0,1,432.71954,122.79429Zm23.06836.03516a9.16513,9.16513,0,1,0-9.16406,9.38086A9.30357,9.30357,0,0,0,455.7879,122.82945Z"/><path class="cls-1" d="M487.701,136.05406l-8.69531-11.0332h-.46582v11.0332h-4.708V109.46129H483.784c6.68554,0,9.19921,3.30761,9.19921,7.76367,0,4.27441-2.335,7.54687-8.44335,7.7959l8.94726,11.0332Zm-9.16113-15.05567h5.46093c2.83887,0,4.3125-1.22168,4.3125-3.48632s-1.47363-3.52149-4.3125-3.52149h-5.46093Z"/><polygon class="cls-1" points="563.899 176.707 13.696 176.707 13.696 66.823 209.797 66.823 209.797 69.199 16.072 69.199 16.072 174.331 561.523 174.331 561.523 69.199 358.444 69.199 358.444 66.823 563.899 66.823 563.899 176.707"/><path class="cls-1" d="M345.47679,26.767a6.78672,6.78672,0,0,0,1.809-4.041,1.16787,1.16787,0,0,0-1.209-1.299c-1.239,0-2.724,1.53-2.724,3.828a4.783,4.783,0,0,0,.102.966c-1.422,2.223-2.901,4.467-4.398,6.639a8.19824,8.19824,0,0,0-1.611-.156,7.27649,7.27649,0,0,0-7.308,7.575,9.42466,9.42466,0,0,0,.633,3.498c-3.078,3.507-5.79,5.781-7.62,5.781a1.06141,1.06141,0,0,1-1.158-1.209,12.28108,12.28108,0,0,1,1.272-4.2l10.575-23.424,11.421-1.347,1.296-2.703-11.049.36,1.914-4.239-4.287.531-1.941,3.846-15.456.504-2.778,5.511,16.164-1.905-3.255,6.45a14.54176,14.54176,0,0,0-6.015-1.173,21.73057,21.73057,0,0,0-9.783,2.355,10.03481,10.03481,0,0,0-4.395-.966c-3.735,0-7.962,1.797-11.394,4.944-.696-2.145-2.157-3.435-4.311-3.435-2.514,0-5.181,1.323-7.734,3.453a6.02346,6.02346,0,0,0-6.066-.732,15.51431,15.51431,0,0,0,1.941-7.296,9.9943,9.9943,0,0,0-5.724-9.414,28.503,28.503,0,0,1,4.005-2.742,9.24424,9.24424,0,0,0-1.281-.903,36.53086,36.53086,0,0,0-5.214,2.625,27.42627,27.42627,0,0,0-8.289-1.122c-14.751,0-28.71,8.52-28.71,19.047,0,4.641,2.628,6.3,5.22,6.3,2.427,0,4.8-1.365,5.55-3.009a4.35272,4.35272,0,0,1-3.36-4.587c0-8.196,9.927-15.369,20.115-15.369a13.45513,13.45513,0,0,1,5.877,1.209c-6.189,4.767-10.935,11.247-14.859,18.18a10.64477,10.64477,0,0,0-1.65-.132c-2.925,0-5.04,1.257-5.04,3.69a4.99584,4.99584,0,0,0,2.721,4.095c-2.424,5.049-4.542,10.098-6.582,14.694a4.58847,4.58847,0,0,0-4.179-2.307c-4.488,0-7.86,3.948-7.86,8.835a12.90752,12.90752,0,0,0,3.522,8.679c-2.103,2.349-4.407,3.747-7.095,3.81a4.76373,4.76373,0,0,1-2.502-.627,3.97971,3.97971,0,0,0,3.789-3.834c-.048-2.034-1.743-3.474-4.065-3.417a4.40352,4.40352,0,0,0-4.341,4.53c.09,3.861,3.366,5.889,7.647,5.787a15.93924,15.93924,0,0,0,9.699-3.624,18.10081,18.10081,0,0,0,9.798,2.766c11.355,0,20.982-9.663,20.982-22.641a22.59569,22.59569,0,0,0-3.318-12.363,25.48674,25.48674,0,0,0,9.444-5.865c3.525-3.498,6.15-3.177,7.65-2.226-5.859,6.078-10.617,15.885-10.617,22.473,0,4.08,1.632,6.741,4.776,6.741,9.417,0,20.667-18.165,20.526-28.143,3.027-3.354,7.074-5.352,10.356-5.352a6.65194,6.65194,0,0,1,1.701.21c-7.362,5.205-11.949,14.106-11.949,20.955,0,3.627,1.782,6.378,5.259,6.378,6.483,0,14.925-10.098,14.925-20.166a10.5469,10.5469,0,0,0-2.274-7.056,14.469,14.469,0,0,1,7.425-2.169,11.70134,11.70134,0,0,1,4.626,1.002l-6.492,12.876a17.40841,17.40841,0,0,0-2.097,7.161,3.57635,3.57635,0,0,0,3.939,3.933c3.522,0,7.674-3.27,11.811-7.944a9.05475,9.05475,0,0,0,6.885,3.204,12.08475,12.08475,0,0,0,2.247-.213c-1.743,2.202-4.647,3.858-8.901,4.923l-56.355,14.088c-8.562,2.139-13.794,6.366-11.271,14.454,1.956-1.605,5.475-3.174,14.568-5.949l51.156-15.597a21.79538,21.79538,0,0,0,14.25-13.056c3.486-1.695,6.588-4.929,6.588-9.417,0-4.956-4.158-7.92-5.667-11.517m-89.538,12.867a12.26547,12.26547,0,0,1,1.782,1.827,16.84945,16.84945,0,0,1-2.787.342c.333-.723.666-1.446,1.005-2.169m-8.82-1.188c0-1.281,1.545-1.503,3.198-1.305q-.89549,1.6605-1.731,3.342a2.586,2.586,0,0,1-1.467-2.037m-12.585,31.377a8.29164,8.29164,0,0,1-2.778-5.916,5.54489,5.54489,0,0,1,.669-2.559,4.19311,4.19311,0,0,0,3.834,2.316,5.03952,5.03952,0,0,0,1.941-.393,57.52185,57.52185,0,0,1-3.666,6.552m7.779,2.835a12.83482,12.83482,0,0,1-3.555-.477c5.838-6.57,10.191-17.094,14.943-27.663a26.96424,26.96424,0,0,0,5.616-.483,17.0714,17.0714,0,0,1,1.533,7.374c0,9.543-7.014,21.249-18.537,21.249m18.651-32.229a18.05355,18.05355,0,0,0-3.879-3.195c3.369-6.933,7.11-13.479,11.793-18.477a9.18584,9.18584,0,0,1,2.454,6.57,16.80306,16.80306,0,0,1-10.368,15.102m14.376,19.833c-.906,0-1.359-.786-1.359-2.115,0-5.805,9.855-24.789,14.811-24.789.939,0,1.362.786,1.362,2.145,0,5.865-9.795,24.759-14.814,24.759m25.425-5.52c-.939,0-1.362-.756-1.362-2.148,0-4.491,3.993-13.914,10.404-19.455a8.28179,8.28179,0,0,1,1.035,4.224c.033,7.425-6.774,17.379-10.077,17.379m31.818-13.119a7.34379,7.34379,0,0,1-.177-1.635,4.97532,4.97532,0,0,1,4.794-5.241c.18,0,.357.009.528.024-1.74,2.466-3.477,4.797-5.145,6.852m10.344,3.288a7.07194,7.07194,0,0,1-4.224,1.389,6.18246,6.18246,0,0,1-5.079-2.385c2.145-2.607,4.26-5.529,6.261-8.499,2.325,1.311,3.276,4.335,3.279,7.074a11.92177,11.92177,0,0,1-.237,2.421m2.745-3.324a9.19755,9.19755,0,0,0-4.572-8.004c1.119-1.71,2.193-3.42,3.207-5.079,1.068,2.163,2.649,4.503,2.649,7.581a12.29112,12.29112,0,0,1-1.284,5.502"/></svg>